<?xml version="1.0" encoding="UTF-8"?>
<svg xmlns="http://www.w3.org/2000/svg" style="display:none" aria-hidden="true">
  <defs>
    <symbol id="icon-home" viewBox="0 0 24 24" stroke-width="1.5" stroke="currentColor" fill="none" stroke-linecap="round" stroke-linejoin="round">
      <path d="M3 11.5 12 4l9 7.5V20a1 1 0 0 1-1 1h-5v-6h-6v6H4a1 1 0 0 1-1-1z"/>
    </symbol>
    <symbol id="icon-check" viewBox="0 0 24 24" stroke-width="1.5" stroke="currentColor" fill="none" stroke-linecap="round" stroke-linejoin="round">
      <polyline points="20 6 9 17 4 12"/>
    </symbol>
    <symbol id="icon-alert" viewBox="0 0 24 24" stroke-width="1.5" stroke="currentColor" fill="none" stroke-linecap="round" stroke-linejoin="round">
      <path d="M12 9v4"/>
      <path d="M12 17h.01"/>
      <path d="M10.29 3.86 1.82 18a2 2 0 0 0 1.71 3h16.94a2 2 0 0 0 1.71-3L13.71 3.86a2 2 0 0 0-3.42 0z"/>
    </symbol>
    <symbol id="icon-clock" viewBox="0 0 24 24" stroke-width="1.5" stroke="currentColor" fill="none" stroke-linecap="round" stroke-linejoin="round">
      <circle cx="12" cy="12" r="9"/>
      <polyline points="12 7 12 12 15 14"/>
    </symbol>
    <symbol id="icon-chevron-right" viewBox="0 0 24 24" stroke-width="1.5" stroke="currentColor" fill="none" stroke-linecap="round" stroke-linejoin="round">
      <polyline points="9 6 15 12 9 18"/>
    </symbol>
  </defs>
</svg>
